<svg width="50" height="50" fill="none" xmlns="http://www.w3.org/2000/svg"><path d="M46.138 33.454c-2.018-.716-3.721-.537-5.066.028.226-1.37.735-2.862 1.828-3.876a1.664 1.664 0 1 0-2.264-2.44c-1.92 1.782-2.665 4.295-2.928 6.377a6.335 6.335 0 0 0-1.652-.486l2.953-15.36a1.663 1.663 0 0 0-1.634-1.977h-.319c.147-.782.22-1.559.215-2.297-.025-3.115-1.412-5.462-3.71-6.277-2.202-.781-4.046-.546-5.479.104.227-1.525.772-3.224 2.003-4.366A1.664 1.664 0 1 0 27.82.444c-2.062 1.914-2.835 4.634-3.096 6.854-1.148-.544-2.569-.822-4.232-.516-1.71-2.455-4.083-3.587-6.39-3.034-2.268.545-3.684 1.743-4.532 3.066C8.93 5.41 8.458 3.687 8.865 2.07a1.664 1.664 0 0 0-3.227-.811c-.687 2.728.147 5.43 1.139 7.434-1.588.215-3.308 1.015-4.764 2.916-.903 1.18-1.208 2.653-.93 4.218A1.664 1.664 0 0 0 .03 17.698L5.98 48.65c.151.784.837 1.35 1.635 1.35h23.807c.798 0 1.483-.566 1.634-1.35l.059-.304c.448.309.93.567 1.448.76 1.978.737 3.822.434 4.755.184.494.133 1.243.28 2.131.28.791 0 1.694-.117 2.625-.464 3.688-1.374 5.648-5.999 5.619-9.653-.023-2.975-1.353-5.218-3.556-6ZM35.276 19.047c-.766 7.353-6.956 12.36-15.58 12.36-8.623 0-14.813-5.008-15.58-12.36h31.16Zm-10.378-7.305c.288.544.837.885 1.454.885.616 0 1.165-.34 1.453-.885a4.117 4.117 0 0 1 1.202-1.214c.983-.638 2.109-.718 3.442-.245 1.33.471 1.487 2.371 1.494 3.166a8.96 8.96 0 0 1-.298 2.27H22.51c.368-1.858.147-3.893-.451-5.732a3.306 3.306 0 0 1 1.635.541 4.117 4.117 0 0 1 1.203 1.214Zm-20.242 1.89c.86-1.123 1.847-1.67 3.02-1.67h.002c.892 0 1.588.324 1.667.362.532.296 1.17.269 1.685-.059.518-.329.797-.924.752-1.535-.01-.12-.18-2.959 3.098-3.746 1.37-.33 2.54 1.177 2.979 1.84 1.261 1.908 1.908 4.857 1.213 6.895H4.466c-.22-.691-.28-1.473.19-2.087Zm4.334 33.04L5.692 29.52c.216.207.439.41.668.607 3.45 2.97 8.186 4.607 13.336 4.607s9.887-1.636 13.337-4.607c.08-.069.159-.14.237-.21l-.673 3.505c-.032.01-.064.02-.096.032-2.203.781-3.532 3.024-3.556 5.999-.014 1.82.465 3.879 1.404 5.658l-.3 1.561H8.99Zm33.924-.684c-1.474.549-2.94.027-2.994.007a1.63 1.63 0 0 0-1.2 0c-.014.005-1.5.55-2.994-.007-2.09-.779-3.473-3.994-3.453-6.509.006-.728.147-2.466 1.34-2.889a4.38 4.38 0 0 1 1.468-.273c1.73 0 2.59 1.269 2.784 1.6.287.547.837.89 1.455.89.618 0 1.167-.343 1.454-.89.244-.415 1.526-2.293 4.252-1.327 1.193.423 1.335 2.161 1.34 2.89.02 2.514-1.362 5.73-3.452 6.508Z" fill="#FFA5BA"/></svg>