<?xml version="1.0" encoding="iso-8859-1"?>
<!-- Generator: Adobe Illustrator 19.0.0, SVG Export Plug-In . SVG Version: 6.00 Build 0)  -->
<svg version="1.1" id="Layer_1" xmlns="http://www.w3.org/2000/svg" xmlns:xlink="http://www.w3.org/1999/xlink" x="0px" y="0px"
	 viewBox="0 0 512 512" style="enable-background:new 0 0 512 512;" xml:space="preserve">
<g>
	<g>
		<path d="M256,0c-62.906,0-114.084,51.178-114.084,114.084v253.144h74.336v105.025C216.253,494.169,234.083,512,256,512
			s39.747-17.831,39.747-39.748V367.228h74.336V114.084h0.001C370.084,51.178,318.906,0,256,0z M262.357,472.252h-0.001
			c0,3.505-2.852,6.357-6.355,6.357c-3.504,0-6.355-2.852-6.355-6.357V367.228h12.712V472.252z M336.692,333.836H175.308V114.084
			c0-44.494,36.198-80.692,80.692-80.692s80.692,36.198,80.692,80.692V333.836z"/>
	</g>
</g>
<g>
</g>
<g>
</g>
<g>
</g>
<g>
</g>
<g>
</g>
<g>
</g>
<g>
</g>
<g>
</g>
<g>
</g>
<g>
</g>
<g>
</g>
<g>
</g>
<g>
</g>
<g>
</g>
<g>
</g>
</svg>
