<?xml version="1.0" encoding="iso-8859-1"?>
<!-- Generator: Adobe Illustrator 18.0.0, SVG Export Plug-In . SVG Version: 6.00 Build 0)  -->
<!DOCTYPE svg PUBLIC "-//W3C//DTD SVG 1.1//EN" "http://www.w3.org/Graphics/SVG/1.1/DTD/svg11.dtd">
<svg version="1.1" id="Capa_1" xmlns="http://www.w3.org/2000/svg" xmlns:xlink="http://www.w3.org/1999/xlink" x="0px" y="0px"
	 viewBox="0 0 453.529 453.529" style="enable-background:new 0 0 453.529 453.529;" xml:space="preserve">
<g id="XMLID_212_">
	<path id="XMLID_213_" d="M71.574,427.078c0,14.605,11.846,26.451,26.451,26.451s26.451-11.846,26.451-26.451v-89.583H71.574
		V427.078z"/>
	<path id="XMLID_214_" d="M98.018,0.082c-53.559,0-96.985,43.425-96.985,96.992v198.28c0,6.575,5.335,11.91,11.919,11.91h170.146
		c6.577,0,11.912-5.335,11.912-11.91V97.074C195.01,43.507,151.585,0.082,98.018,0.082z M54.703,249.477
		c0,8.347-6.769,15.115-15.115,15.115c-8.348,0-15.115-6.769-15.115-15.115v-15.114c0-8.347,6.767-15.115,15.115-15.115
		c8.346,0,15.115,6.769,15.115,15.115V249.477z M54.703,188.715c0,8.347-6.769,15.115-15.115,15.115
		c-8.348,0-15.115-6.769-15.115-15.115V94.209c0-8.347,6.767-15.115,15.115-15.115c8.346,0,15.115,6.768,15.115,15.115V188.715z"/>
	<path id="XMLID_218_" d="M298.6,161.968c-1.203-3.275-2.228-6.634-3.062-10.066c-29.646-12.878-51.404-40.458-56.194-73.486
		c-5.469,4.222-10.414,9.108-14.296,14.849c-6.997,10.34-11.093,22.813-11.093,36.246c0,13.536,4.186,26.083,11.285,36.474
		c0.458,0.671,1.055,1.217,1.536,1.867c5.814-3.661,12.486-5.882,19.534-5.882H298.6z"/>
	<path id="XMLID_219_" d="M293.862,115.842c6.658-45.905,46.158-81.324,93.886-81.324c0.833,0,1.646,0.104,2.471,0.125
		C379.356,14.134,358.048,0,333.221,0c-35.757,0-64.746,28.99-64.746,64.747C268.475,85.627,278.526,103.996,293.862,115.842z"/>
	<path id="XMLID_220_" d="M387.748,64.747c-35.759,0-64.755,28.998-64.755,64.763c0,11.89,3.431,22.886,9.026,32.458h88.112
		c7.05,0,13.728,2.222,19.536,5.882c7.964-10.76,12.828-23.934,12.828-38.34C452.496,93.746,423.505,64.747,387.748,64.747z"/>
	<path id="XMLID_221_" d="M420.131,192.198H246.31c-2.169,0-4.199,1.057-5.446,2.821c-1.254,1.771-1.564,4.037-0.842,6.081
		l86.911,244.806c0.945,2.665,3.461,4.443,6.288,4.443c2.828,0,5.345-1.778,6.29-4.443l86.911-244.806
		c0.723-2.044,0.413-4.309-0.842-6.081C424.332,193.254,422.302,192.198,420.131,192.198z"/>
</g>
<g>
</g>
<g>
</g>
<g>
</g>
<g>
</g>
<g>
</g>
<g>
</g>
<g>
</g>
<g>
</g>
<g>
</g>
<g>
</g>
<g>
</g>
<g>
</g>
<g>
</g>
<g>
</g>
<g>
</g>
</svg>
