<svg width="50" height="50" viewBox="0 0 50 50" fill="none" xmlns="http://www.w3.org/2000/svg">
<path d="M46.1382 33.4539C44.1195 32.7379 42.4165 32.917 41.0722 33.4822C41.2981 32.1115 41.8071 30.6197 42.8996 29.6061C43.5734 28.9812 43.6128 27.9285 42.9879 27.2547C42.3633 26.5812 41.3104 26.5416 40.6365 27.1665C38.716 28.948 37.9715 31.461 37.7084 33.5431C37.2084 33.3187 36.6567 33.1473 36.0555 33.0566L39.0089 17.6978C39.1027 17.2103 38.9739 16.7066 38.6577 16.3239C38.3417 15.9413 37.8714 15.7197 37.3749 15.7197H37.056C37.2025 14.9377 37.2764 14.1615 37.2705 13.4231C37.2458 10.3079 35.8592 7.96146 33.5616 7.14648C31.3589 6.365 29.5153 6.59985 28.082 7.24968C28.3092 5.7251 28.8542 4.0256 30.0847 2.88419C30.7584 2.25927 30.7978 1.20658 30.1729 0.532842C29.5483 -0.140727 28.4953 -0.180289 27.8215 0.444627C25.7586 2.35843 24.9857 5.07779 24.7249 7.29833C23.5766 6.75439 22.1565 6.4756 20.4929 6.78234C18.7833 4.32712 16.4103 3.19547 14.1032 3.7485C11.8353 4.29311 10.4188 5.49126 9.57052 6.81432C8.92961 5.40927 8.45807 3.68722 8.8648 2.07038C9.08887 1.17914 8.54813 0.275098 7.65705 0.0508556C6.76547 -0.173892 5.86177 0.367354 5.63753 1.2586C4.95116 3.98722 5.78534 6.68924 6.77692 8.69311C5.18921 8.90759 3.46867 9.70826 2.01345 11.6086C1.10992 12.7887 0.805035 14.262 1.08231 15.8266C0.812274 15.9276 0.569008 16.0965 0.381129 16.3239C0.0651359 16.7066 -0.0638203 17.2103 0.0299508 17.6978L5.98163 48.6502C6.13231 49.4335 6.81783 49.9998 7.61564 49.9998H31.423C32.2209 49.9998 32.9064 49.4335 33.0571 48.6502L33.1156 48.3456C33.5643 48.6547 34.0463 48.9133 34.5636 49.1061C36.5422 49.8428 38.3863 49.5404 39.3195 49.2904C39.8131 49.4227 40.5618 49.5697 41.4505 49.5697C42.2414 49.5697 43.1436 49.4532 44.0752 49.1061C47.7634 47.732 49.7229 43.1071 49.6939 39.4529C49.6707 36.478 48.3414 34.2354 46.1382 33.4539ZM35.2761 19.0475C34.5099 26.3997 28.3197 31.4061 19.6963 31.4061C11.0729 31.4061 4.88264 26.3995 4.11648 19.0475H35.2761ZM24.8976 11.7419C25.1855 12.2865 25.735 12.6275 26.3515 12.6275C26.968 12.6275 27.5173 12.2865 27.8054 11.7419C27.8507 11.6669 28.2587 11.014 29.0072 10.5281C29.9902 9.89042 31.116 9.81011 32.449 10.2828C33.7783 10.7542 33.9363 12.6544 33.9427 13.4493C33.9485 14.1736 33.8422 14.9517 33.6449 15.7195H22.5111C22.8793 13.861 22.6582 11.8261 22.0597 9.98722C22.6481 10.0214 23.1907 10.2009 23.6954 10.5281C24.4443 11.014 24.852 11.6667 24.8976 11.7419ZM4.65588 13.6315C5.51564 12.5088 6.50318 11.9625 7.67524 11.9613H7.67843C8.56968 11.9613 9.26615 12.2857 9.3446 12.3238C9.87726 12.6199 10.5146 12.5928 11.03 12.2655C11.5475 11.9365 11.8269 11.3413 11.7816 10.7296C11.7727 10.6093 11.6012 7.77123 14.8803 6.98402C16.2495 6.65473 17.42 8.16146 17.8587 8.82476C19.12 10.7317 19.7672 13.6805 19.0725 15.7194H4.46497C4.24493 15.028 4.18567 14.2458 4.65588 13.6315ZM8.99039 46.6721L5.69207 29.5195C5.90823 29.7273 6.13079 29.93 6.35992 30.1273C9.80958 33.0978 14.5459 34.7339 19.6963 34.7339C24.8466 34.7339 29.583 33.098 33.0326 30.1273C33.1131 30.0581 33.1917 29.9872 33.2705 29.9167L32.5966 33.4217C32.5646 33.4327 32.5331 33.4426 32.501 33.4539C30.2978 34.2354 28.9685 36.478 28.9451 39.4529C28.9306 41.2722 29.4096 43.332 30.3488 45.1115L30.0488 46.6721H8.99039ZM42.9136 45.9877C41.4395 46.5367 39.9747 46.015 39.9202 45.9951C39.5301 45.8441 39.1101 45.8404 38.7205 45.9946C38.7057 46.0004 37.2204 46.5445 35.7256 45.9876C33.6357 45.2091 32.2528 41.9936 32.2727 39.4791C32.2786 38.7514 32.4205 37.0131 33.6135 36.5901C34.1594 36.3965 34.647 36.317 35.0805 36.317C36.8109 36.317 37.6702 37.5855 37.865 37.9174C38.1523 38.4642 38.7017 38.8066 39.3197 38.8066C39.9379 38.8066 40.487 38.4638 40.7744 37.9174C41.018 37.5025 42.3003 35.6238 45.0259 36.5901C46.2187 37.013 46.3608 38.7514 46.3666 39.4791C46.3863 41.9938 45.0035 45.2093 42.9136 45.9877Z" fill="#FFA5BA"/>
</svg>
