
<svg aria-hidden="true" style="position:absolute;width:0;height:0;overflow:hidden" xmlns="http://www.w3.org/2000/svg">
<defs>
<symbol id="icon-ice-cream" viewBox="0 0 32 32">
<path d="M16 0c-3.932 0-7.13 3.199-7.13 7.13v15.822h4.646v6.564C13.516 30.886 14.63 32 16 32s2.484-1.114 2.484-2.484v-6.564h4.646V7.13C23.13 3.198 19.931 0 16 0zm.397 29.516a.397.397 0 0 1-.794 0v-6.564h.795v6.564zm4.646-8.651H10.957V7.13c0-2.781 2.262-5.043 5.043-5.043s5.043 2.262 5.043 5.043v13.735z"/>
</symbol>
<symbol id="icon-two-ice-creams" viewBox="0 0 32 32">
<path d="M5.05 30.134a1.867 1.867 0 0 0 3.732 0v-6.321H5.049v6.321zM6.916.006A6.844 6.844 0 0 0 .073 6.85v13.99c0 .464.376.84.841.84h12.005a.84.84 0 0 0 .84-.84V6.85A6.844 6.844 0 0 0 6.915.006zM3.86 17.603a1.066 1.066 0 0 1-2.132 0v-1.066a1.066 1.066 0 1 1 2.132 0v1.066zm0-4.288a1.066 1.066 0 0 1-2.132 0V6.647a1.066 1.066 0 1 1 2.132 0v6.668zM21.069 11.428a6.544 6.544 0 0 1-.216-.71 6.717 6.717 0 0 1-3.965-5.185 4.583 4.583 0 0 0-1.009 1.048 4.547 4.547 0 0 0-.783 2.557c0 .955.295 1.84.796 2.574.032.047.074.086.108.132.41-.258.881-.415 1.378-.415h3.689zM20.734 8.174c.47-3.239 3.257-5.738 6.624-5.738.059 0 .116.007.174.009C26.766.998 25.262.001 23.51.001a4.568 4.568 0 0 0-4.568 4.568c0 1.473.709 2.769 1.791 3.605zM27.359 4.568a4.57 4.57 0 0 0-4.569 4.57c0 .839.242 1.615.637 2.29h6.217c.497 0 .969.157 1.378.415a4.527 4.527 0 0 0 .905-2.705 4.57 4.57 0 0 0-4.568-4.57zM29.643 13.561H17.379a.472.472 0 0 0-.443.628l6.132 17.273a.471.471 0 0 0 .888 0l6.132-17.273a.472.472 0 0 0-.443-.628z"/></symbol><symbol id="icon-milkshake" viewBox="0 0 32 32"><path d="M23.805.195a.666.666 0 0 0-1.082.206h-.001l-8.666 19.921 1.223.531L23.945.932a.667.667 0 0 0-.14-.737z"/><path d="M14.387 2.937c1.095 2-4.021 1.208-4.681 5.063-.907 5.298 3.75 5.056 3.75 5.056l6.445-.597s3.105 1.769 1.402-3.986c-1.971-6.66-8.012-7.535-6.917-5.535zM18.667 29.336h-6.666L10.667 32H20z"/><path d="M21.333 8H9.334S8 9.333 8 13.333c0 2.667.667 8.274 4 16.001h6.667c3.333-7.727 4-13.334 4-16.001 0-4-1.334-5.333-1.334-5.333zM13.334 29.336h-1.333a.668.668 0 0 0 1.333 0zM14.667 29.336h-1.333a.668.668 0 0 0 1.333 0zM16 29.336h-1.333a.667.667 0 0 0 1.333 0zM17.333 29.336H16a.666.666 0 0 0 1.332 0zM18.666 29.336h-1.333a.668.668 0 0 0 1.332 0z"/><path d="M19.241 4.52c-.359.808-1.395 2.754-3.336 3.55l.506 1.233c1.931-.792 3.101-2.426 3.709-3.548a9.736 9.736 0 0 0-.879-1.236zM16.91 5.91a17.09 17.09 0 0 0 1.64-2.129 8.148 8.148 0 0 0-1.043-.847c-.707 1.111-3.062 4.432-6.308 5.101l.269 1.306c1.876-.387 3.758-1.573 5.441-3.43zM21.139 30.861a.667.667 0 0 0-.472-.195H10a.667.667 0 1 0 0 1.333h10.667a.668.668 0 0 0 .472-1.138z"/><path d="M8.236 10.666H22.43c-.383-1.952-1.098-2.667-1.098-2.667H9.333s-.715.715-1.098 2.667zM15.805 14.862a.668.668 0 0 0-1.138.472v9.333a.668.668 0 1 0 1.333 0v-9.333a.667.667 0 0 0-.195-.472zM19.139 14.862a.668.668 0 0 0-1.131.377h-.001l-1.333 9.333a.667.667 0 0 0 1.13.566.679.679 0 0 0 .189-.378l1.334-9.333h-.001a.667.667 0 0 0-.188-.566zM13.994 24.572l-1.334-9.334-.001.001a.665.665 0 1 0-1.319.188l-.001.001 1.334 9.333h.001a.668.668 0 0 0 1.319-.188h.001zM12.664 4.729l-1.328-.125-.001.009c0-.004.023-.396-.214-.819-.321-.574-.965-.957-1.914-1.139a.666.666 0 1 1 .251-1.309c.963.185 2.243.662 2.875 1.889.387.75.336 1.421.33 1.495z"/>
<path d="M14.001 4.666a2 2 0 1 1-3.999.001 2 2 0 0 1 3.999-.001z"/>
</symbol>
<symbol id="icon-check-mark" viewBox="0 0 32 32">
<path d="M27.333 10.356l-3.561-3.561-11.427 11.427-4.116-4.116-3.561 3.561 7.742 7.751z"></path>
<path stroke-linejoin="round" stroke-linecap="round" stroke-miterlimit="10" stroke-width="0.8889" d="M4.667 17.671l7.742 7.751 14.924-15.062-3.561-3.561-11.427 11.427-4.116-4.116z"></path>
</symbol>
<symbol id="icon-cross" viewBox="0 0 32 32">
<path d="M24.060 16l7.517-7.518c0.564-0.564 0.564-1.478 0-2.041l-6.018-6.018c-0.564-0.564-1.478-0.564-2.041 0l-7.517 7.518-7.518-7.518c-0.564-0.564-1.478-0.564-2.041 0l-6.018 6.018c-0.564 0.564-0.564 1.478 0 2.041l7.518 7.518-7.518 7.518c-0.564 0.564-0.564 1.478 0 2.041l6.018 6.018c0.564 0.564 1.478 0.564 2.041 0l7.518-7.517 7.517 7.517c0.564 0.564 1.478 0.564 2.041 0l6.018-6.018c0.564-0.564 0.564-1.478 0-2.041l-7.517-7.517z"></path>
</symbol>
<symbol id="icon-phone" viewBox="0 0 32 32">
 <path d="m24.882 19.773-3.268-.373a2.561 2.561 0 0 0-2.11.733L17.137 22.5a19.357 19.357 0 0 1-8.478-8.478l2.38-2.38a2.561 2.561 0 0 0 .733-2.11l-.373-3.242a2.575 2.575 0 0 0-2.56-2.277H6.613c-1.454 0-2.663 1.209-2.573 2.663.682 10.987 9.469 19.761 20.443 20.443 1.454.09 2.663-1.119 2.663-2.573V22.32a2.549 2.549 0 0 0-2.264-2.547z" />
</symbol>
<symbol id="icon-person" viewBox="0 0 32 32">
<path d="M16 16c2.947 0 5.333-2.387 5.333-5.333S18.946 5.334 16 5.334c-2.947 0-5.333 2.387-5.333 5.333S13.054 16 16 16zm0 2.667c-3.56 0-10.667 1.787-10.667 5.333v1.333c0 .733.6 1.333 1.333 1.333h18.667c.733 0 1.333-.6 1.333-1.333V24c0-3.547-7.107-5.333-10.667-5.333z" />
</symbol>
<symbol id="icon-ice-cream-totop" viewBox="0 0 32 32"><path d="m16.953 31.324 4.809-13.527a4.146 4.146 0 0 1-1.62-.598 4.606 4.606 0 0 1-4.173 2.672 4.61 4.61 0 0 1-4.159-2.642 4.165 4.165 0 0 1-1.339.518l4.562 13.56c.307.915 1.598.926 1.921.017z"/><path d="M15.968 19.166a3.889 3.889 0 0 0 3.815-3.136l.032-.015a3.422 3.422 0 0 0 2.531 1.119 3.433 3.433 0 0 0 3.433-3.433 3.426 3.426 0 0 0-1.577-2.885 8.423 8.423 0 0 0 .345-2.375C24.547 3.779 20.768 0 16.106 0S7.665 3.779 7.665 8.441c0 .785.115 1.542.316 2.263a3.433 3.433 0 0 0 1.673 6.43c.988 0 1.876-.42 2.502-1.087a3.89 3.89 0 0 0 3.813 3.119zm5.135-14.561a.429.429 0 1 1 .858 0v.847a.429.429 0 1 1-.858 0v-.847zm-.434 2.466a.429.429 0 0 1 .607 0l1.12 1.12a.429.429 0 1 1-.606.607l-1.12-1.12a.429.429 0 0 1 0-.607zm-2.891-4.499a.429.429 0 0 1 .576.192l.714 1.429a.43.43 0 0 1-.768.384l-.714-1.429a.43.43 0 0 1 .192-.576zm-2.427 4.579.549-.549a.429.429 0 1 1 .607.607l-.549.549a.426.426 0 0 1-.606 0 .429.429 0 0 1 0-.607zM13.27 3.397l1.041-1.041a.429.429 0 1 1 .607.607l-1.041 1.041a.426.426 0 0 1-.606 0 .429.429 0 0 1 0-.607zm-2.518 2.254a.429.429 0 0 1 .607 0l.979.979a.429.429 0 1 1-.606.607l-.979-.979a.429.429 0 0 1 0-.607zm.26 4.553a.428.428 0 0 1-.145-.833l1.066-.385a.428.428 0 1 1 .291.807l-1.066.385a.413.413 0 0 1-.146.026z"/></symbol>
	<symbol id="icon-arrow" viewBox="0 0 32 32"><path d="M17.724 9.724a1.332 1.332 0 0 0 0 1.885l3.057 3.057H10.666a1.333 1.333 0 0 0 0 2.666h10.115l-3.057 3.057a1.332 1.332 0 1 0 1.886 1.885l6.276-6.276-6.276-6.276a1.332 1.332 0 0 0-1.885 0z"/></symbol>
	<symbol id="icon-bracket" viewBox="0 0 19 32"><path stroke="#d41443" style="stroke:var(--color1, #d41443)" stroke-linejoin="round" stroke-linecap="round" stroke-width="6.4" d="M3.2 3.2 16 16 3.2 28.8"/></symbol><symbol id="icon-facebook" viewBox="0 0 16 32"><path fill="#fff" style="fill:var(--color2, #fff)" d="M14.266 15.97H10.09v15.39H3.763V15.97H.754v-5.409h3.009v-3.5c0-2.503 1.182-6.422 6.384-6.422l4.687.02v5.25h-3.401c-.558 0-1.342.28-1.342 1.474v3.183h4.729l-.553 5.403z"/>
	</symbol>
	<symbol id="icon-github" viewBox="0 0 32 32"><path fill="#fff" style="fill:var(--color2, #fff)" d="M16 .941C7.729.941.941 7.729.941 16c0 7.058 4.953 13.47 11.529 15.059v-4.982c-.652.143-1.251.147-1.915-.049-.89-.263-1.613-.855-2.15-1.759-.342-.577-.949-1.203-1.581-1.157l-.155-1.758c1.368-.117 2.551.833 3.254 2.014.312.525.671.832 1.132.968.446.131.924.068 1.481-.129.14-1.116.651-1.534 1.037-2.122v-.001c-3.922-.585-5.486-2.666-6.106-4.308-.822-2.181-.381-4.905 1.073-6.627.028-.034.079-.121.059-.183-.667-2.014.146-3.679.176-3.856.769.228.894-.229 3.342 1.258l.423.254c.177.105.121.045.298.032a12.77 12.77 0 0 1 3.16-.445 12.84 12.84 0 0 1 3.204.456l.137.014c-.012-.002.037-.009.12-.058 3.057-1.852 2.947-1.247 3.767-1.513.03.177.831 1.87.172 3.858-.089.274 2.65 2.782 1.132 6.809-.62 1.643-2.183 3.724-6.106 4.309v.001c.503.766 1.107 1.174 1.104 2.755v6.219C26.105 29.47 31.057 23.058 31.057 16 31.057 7.729 24.27.941 15.998.941z"/></symbol>
	<symbol id="icon-telegram" viewBox="0 0 40 32"><path fill="#fff" style="fill:var(--color2, #fff)" d="m16.205 20.751-.635 8.339c.909 0 1.302-.364 1.774-.802l4.261-3.801 8.829 6.035c1.619.842 2.76.399 3.197-1.39l5.797-25.346c.514-2.234-.866-3.108-2.443-2.56L2.92 13.398c-2.325.842-2.29 2.052-.395 2.6l8.709 2.528L31.463 6.712c.952-.588 1.818-.263 1.106.326L16.205 20.751z"/></symbol></defs></svg>

