
<svg aria-hidden="true" style="position:absolute;width:0;height:0;overflow:hidden" xmlns="http://www.w3.org/2000/svg">
<defs>
<symbol id="icon-ice-cream" viewBox="0 0 32 32"><path d="m16.953 31.324 4.809-13.527a4.146 4.146 0 0 1-1.62-.598 4.606 4.606 0 0 1-4.173 2.672 4.61 4.61 0 0 1-4.159-2.642 4.165 4.165 0 0 1-1.339.518l4.562 13.56c.307.915 1.598.926 1.921.017z"/><path d="M15.968 19.166a3.889 3.889 0 0 0 3.815-3.136l.032-.015a3.422 3.422 0 0 0 2.531 1.119 3.433 3.433 0 0 0 3.433-3.433 3.426 3.426 0 0 0-1.577-2.885 8.423 8.423 0 0 0 .345-2.375C24.547 3.779 20.768 0 16.106 0S7.665 3.779 7.665 8.441c0 .785.115 1.542.316 2.263a3.433 3.433 0 0 0 1.673 6.43c.988 0 1.876-.42 2.502-1.087a3.89 3.89 0 0 0 3.813 3.119zm5.135-14.561a.429.429 0 1 1 .858 0v.847a.429.429 0 1 1-.858 0v-.847zm-.434 2.466a.429.429 0 0 1 .607 0l1.12 1.12a.429.429 0 1 1-.606.607l-1.12-1.12a.429.429 0 0 1 0-.607zm-2.891-4.499a.429.429 0 0 1 .576.192l.714 1.429a.43.43 0 0 1-.768.384l-.714-1.429a.43.43 0 0 1 .192-.576zm-2.427 4.579.549-.549a.429.429 0 1 1 .607.607l-.549.549a.426.426 0 0 1-.606 0 .429.429 0 0 1 0-.607zM13.27 3.397l1.041-1.041a.429.429 0 1 1 .607.607l-1.041 1.041a.426.426 0 0 1-.606 0 .429.429 0 0 1 0-.607zm-2.518 2.254a.429.429 0 0 1 .607 0l.979.979a.429.429 0 1 1-.606.607l-.979-.979a.429.429 0 0 1 0-.607zm.26 4.553a.428.428 0 0 1-.145-.833l1.066-.385a.428.428 0 1 1 .291.807l-1.066.385a.413.413 0 0 1-.146.026z"/></symbol>
	<symbol id="icon-arrow" viewBox="0 0 32 32"><path d="M17.724 9.724a1.332 1.332 0 0 0 0 1.885l3.057 3.057H10.666a1.333 1.333 0 0 0 0 2.666h10.115l-3.057 3.057a1.332 1.332 0 1 0 1.886 1.885l6.276-6.276-6.276-6.276a1.332 1.332 0 0 0-1.885 0z"/></symbol>
	<symbol id="icon-bracket" viewBox="0 0 19 32"><path fill="none" stroke="#d41443" style="stroke:var(--color1, #d41443)" stroke-linejoin="round" stroke-linecap="round" stroke-width="6.4" d="M3.2 3.2 16 16 3.2 28.8"/></symbol><symbol id="icon-facebook" viewBox="0 0 16 32"><path fill="#fff" style="fill:var(--color2, #fff)" d="M14.266 15.97H10.09v15.39H3.763V15.97H.754v-5.409h3.009v-3.5c0-2.503 1.182-6.422 6.384-6.422l4.687.02v5.25h-3.401c-.558 0-1.342.28-1.342 1.474v3.183h4.729l-.553 5.403z"/>
	</symbol>
	<symbol id="icon-github" viewBox="0 0 32 32"><path fill="#fff" style="fill:var(--color2, #fff)" d="M16 .941C7.729.941.941 7.729.941 16c0 7.058 4.953 13.47 11.529 15.059v-4.982c-.652.143-1.251.147-1.915-.049-.89-.263-1.613-.855-2.15-1.759-.342-.577-.949-1.203-1.581-1.157l-.155-1.758c1.368-.117 2.551.833 3.254 2.014.312.525.671.832 1.132.968.446.131.924.068 1.481-.129.14-1.116.651-1.534 1.037-2.122v-.001c-3.922-.585-5.486-2.666-6.106-4.308-.822-2.181-.381-4.905 1.073-6.627.028-.034.079-.121.059-.183-.667-2.014.146-3.679.176-3.856.769.228.894-.229 3.342 1.258l.423.254c.177.105.121.045.298.032a12.77 12.77 0 0 1 3.16-.445 12.84 12.84 0 0 1 3.204.456l.137.014c-.012-.002.037-.009.12-.058 3.057-1.852 2.947-1.247 3.767-1.513.03.177.831 1.87.172 3.858-.089.274 2.65 2.782 1.132 6.809-.62 1.643-2.183 3.724-6.106 4.309v.001c.503.766 1.107 1.174 1.104 2.755v6.219C26.105 29.47 31.057 23.058 31.057 16 31.057 7.729 24.27.941 15.998.941z"/></symbol>
	<symbol id="icon-telegram" viewBox="0 0 40 32"><path fill="#fff" style="fill:var(--color2, #fff)" d="m16.205 20.751-.635 8.339c.909 0 1.302-.364 1.774-.802l4.261-3.801 8.829 6.035c1.619.842 2.76.399 3.197-1.39l5.797-25.346c.514-2.234-.866-3.108-2.443-2.56L2.92 13.398c-2.325.842-2.29 2.052-.395 2.6l8.709 2.528L31.463 6.712c.952-.588 1.818-.263 1.106.326L16.205 20.751z"/></symbol></defs></svg>

