<svg aria-hidden="true" style="position: absolute; width: 0; height: 0; overflow: hidden;" version="1.1" xmlns="http://www.w3.org/2000/svg" xmlns:xlink="http://www.w3.org/1999/xlink">
<defs>
<symbol id="icon-bracket" viewBox="0 0 22 32">
<path d="M2.56 1.28c-0.96 1.28-0.96 3.2 0.32 4.48l10.88 10.24-10.88 10.56c-1.28 0.96-1.6 3.2-0.32 4.48 0.96 1.28 3.2 1.6 4.48 0.32v0l13.44-12.8c1.28-0.96 1.6-3.2 0.32-4.48 0 0-0.32-0.32-0.32-0.32l-13.44-12.8c-1.6-1.28-3.52-1.28-4.48 0.32z"></path>
</symbol>
<symbol id="icon-ice-cream-totop" viewBox="0 0 32 32">
<path d="M16.953 31.324l4.809-13.527c-0.576-0.083-1.129-0.288-1.62-0.598-0.737 1.596-2.353 2.672-4.173 2.672-1.806 0-3.416-1.063-4.159-2.642-0.412 0.252-0.867 0.421-1.339 0.518l4.562 13.56c0.307 0.915 1.598 0.926 1.921 0.017z"></path>
<path d="M15.968 19.166c1.89 0 3.464-1.348 3.815-3.136 0.011-0.005 0.021-0.010 0.032-0.015 0.628 0.686 1.528 1.119 2.531 1.119 1.896 0 3.433-1.537 3.433-3.433 0-1.212-0.629-2.274-1.577-2.885 0.221-0.754 0.345-1.549 0.345-2.375 0-4.662-3.779-8.441-8.441-8.441s-8.441 3.779-8.441 8.441c0 0.785 0.115 1.542 0.316 2.263-1.050 0.587-1.76 1.708-1.76 2.997 0 1.896 1.537 3.433 3.433 3.433 0.988 0 1.876-0.42 2.502-1.087 0.357 1.779 1.928 3.119 3.813 3.119zM21.103 4.605c0-0.237 0.192-0.429 0.429-0.429s0.429 0.192 0.429 0.429v0.847c0 0.237-0.192 0.429-0.429 0.429s-0.429-0.192-0.429-0.429v-0.847zM20.669 7.071c0.168-0.168 0.439-0.168 0.607 0l1.12 1.12c0.168 0.168 0.168 0.439 0 0.607-0.084 0.084-0.193 0.126-0.303 0.126s-0.22-0.042-0.303-0.126l-1.12-1.12c-0.168-0.168-0.168-0.439 0-0.607zM17.778 2.572c0.212-0.107 0.47-0.020 0.576 0.192l0.714 1.429c0.106 0.212 0.020 0.47-0.192 0.576-0.062 0.031-0.127 0.045-0.192 0.045-0.157 0-0.309-0.087-0.384-0.237l-0.714-1.429c-0.106-0.212-0.020-0.47 0.192-0.576zM15.351 7.151l0.549-0.549c0.167-0.168 0.439-0.168 0.607 0s0.168 0.439 0 0.607l-0.549 0.549c-0.084 0.084-0.193 0.126-0.303 0.126s-0.22-0.042-0.303-0.126c-0.168-0.168-0.168-0.439 0-0.607zM13.27 3.397l1.041-1.041c0.168-0.167 0.439-0.167 0.607 0s0.168 0.439 0 0.607l-1.041 1.041c-0.084 0.084-0.193 0.126-0.303 0.126s-0.22-0.042-0.303-0.126c-0.168-0.168-0.168-0.439 0-0.607zM10.752 5.651c0.168-0.168 0.439-0.168 0.607 0l0.979 0.979c0.168 0.168 0.168 0.439 0 0.607-0.084 0.084-0.193 0.126-0.303 0.126s-0.22-0.042-0.303-0.126l-0.979-0.979c-0.168-0.168-0.168-0.439 0-0.607zM11.012 10.204c-0.176 0-0.34-0.109-0.403-0.284-0.080-0.223 0.035-0.469 0.258-0.549l1.066-0.385c0.222-0.081 0.469 0.035 0.549 0.258s-0.035 0.469-0.258 0.549l-1.066 0.385c-0.048 0.018-0.097 0.026-0.146 0.026z"></path>
</symbol>
<symbol id="icon-arrow" viewBox="0 0 32 32">
<path d="M17.724 9.724c-0.521 0.521-0.521 1.364 0 1.885l3.057 3.057h-10.115c-0.736 0-1.333 0.597-1.333 1.333s0.597 1.333 1.333 1.333h10.115l-3.057 3.057c-0.521 0.521-0.521 1.364 0 1.885 0.26 0.26 0.601 0.391 0.943 0.391s0.683-0.131 0.943-0.391l6.276-6.276-6.276-6.276c-0.521-0.521-1.364-0.521-1.885 0z"></path>
</symbol>
<symbol id="icon-facebook" viewBox="0 0 16 32">
<path fill="#fff" style="fill: var(--color1, #fff)" d="M14.266 15.97h-4.176v15.39h-6.327v-15.39h-3.009v-5.409h3.009v-3.5c0-2.503 1.182-6.422 6.384-6.422l4.687 0.020v5.25h-3.401c-0.558 0-1.342 0.28-1.342 1.474v3.183h4.729l-0.553 5.403z"></path>
</symbol>
<symbol id="icon-github" viewBox="0 0 32 32">
<path fill="#fff" style="fill: var(--color1, #fff)" d="M16 0.941c-8.271 0-15.059 6.788-15.059 15.059 0 7.058 4.953 13.47 11.529 15.059v-4.982c-0.652 0.143-1.251 0.147-1.915-0.049-0.89-0.263-1.613-0.855-2.15-1.759-0.342-0.577-0.949-1.203-1.581-1.157l-0.155-1.758c1.368-0.117 2.551 0.833 3.254 2.014 0.312 0.525 0.671 0.832 1.132 0.968 0.446 0.131 0.924 0.068 1.481-0.129 0.14-1.116 0.651-1.534 1.037-2.122v-0.001c-3.922-0.585-5.486-2.666-6.106-4.308-0.822-2.181-0.381-4.905 1.073-6.627 0.028-0.034 0.079-0.121 0.059-0.183-0.667-2.014 0.146-3.679 0.176-3.856 0.769 0.228 0.894-0.229 3.342 1.258l0.423 0.254c0.177 0.105 0.121 0.045 0.298 0.032 1.022-0.278 2.099-0.431 3.16-0.445 1.069 0.014 2.14 0.167 3.204 0.456l0.137 0.014c-0.012-0.002 0.037-0.009 0.12-0.058 3.057-1.852 2.947-1.247 3.767-1.513 0.030 0.177 0.831 1.87 0.172 3.858-0.089 0.274 2.65 2.782 1.132 6.809-0.62 1.643-2.183 3.724-6.106 4.309v0.001c0.503 0.766 1.107 1.174 1.104 2.755v6.219c6.577-1.589 11.529-8.001 11.529-15.059 0-8.271-6.787-15.059-15.059-15.059v0z"></path>
</symbol>
<symbol id="icon-telegram" viewBox="0 0 40 32">
<path fill="#fff" style="fill: var(--color1, #fff)" d="M16.205 20.751l-0.635 8.339c0.909 0 1.302-0.364 1.774-0.802l4.261-3.801 8.829 6.035c1.619 0.842 2.76 0.399 3.197-1.39l5.797-25.346c0.514-2.234-0.866-3.108-2.443-2.56l-34.065 12.172c-2.325 0.842-2.29 2.052-0.395 2.6l8.709 2.528 20.229-11.814c0.952-0.588 1.818-0.263 1.106 0.326l-16.364 13.713z"></path>
</symbol>
<symbol id="icon-ice-cream" viewBox="0 0 32 32">
<path d="M16 0c-3.932 0-7.13 3.199-7.13 7.13v15.822h4.646v6.564C13.516 30.886 14.63 32 16 32s2.484-1.114 2.484-2.484v-6.564h4.646V7.13C23.13 3.198 19.931 0 16 0zm.397 29.516a.397.397 0 0 1-.794 0v-6.564h.795v6.564zm4.646-8.651H10.957V7.13c0-2.781 2.262-5.043 5.043-5.043s5.043 2.262 5.043 5.043v13.735z"/>
</symbol>
<symbol id="icon-two-ice-creams" viewBox="0 0 32 32">
<path d="M5.05 30.134a1.867 1.867 0 0 0 3.732 0v-6.321H5.049v6.321zM6.916.006A6.844 6.844 0 0 0 .073 6.85v13.99c0 .464.376.84.841.84h12.005a.84.84 0 0 0 .84-.84V6.85A6.844 6.844 0 0 0 6.915.006zM3.86 17.603a1.066 1.066 0 0 1-2.132 0v-1.066a1.066 1.066 0 1 1 2.132 0v1.066zm0-4.288a1.066 1.066 0 0 1-2.132 0V6.647a1.066 1.066 0 1 1 2.132 0v6.668zM21.069 11.428a6.544 6.544 0 0 1-.216-.71 6.717 6.717 0 0 1-3.965-5.185 4.583 4.583 0 0 0-1.009 1.048 4.547 4.547 0 0 0-.783 2.557c0 .955.295 1.84.796 2.574.032.047.074.086.108.132.41-.258.881-.415 1.378-.415h3.689zM20.734 8.174c.47-3.239 3.257-5.738 6.624-5.738.059 0 .116.007.174.009C26.766.998 25.262.001 23.51.001a4.568 4.568 0 0 0-4.568 4.568c0 1.473.709 2.769 1.791 3.605zM27.359 4.568a4.57 4.57 0 0 0-4.569 4.57c0 .839.242 1.615.637 2.29h6.217c.497 0 .969.157 1.378.415a4.527 4.527 0 0 0 .905-2.705 4.57 4.57 0 0 0-4.568-4.57zM29.643 13.561H17.379a.472.472 0 0 0-.443.628l6.132 17.273a.471.471 0 0 0 .888 0l6.132-17.273a.472.472 0 0 0-.443-.628z"/></symbol><symbol id="icon-milkshake" viewBox="0 0 32 32"><path d="M23.805.195a.666.666 0 0 0-1.082.206h-.001l-8.666 19.921 1.223.531L23.945.932a.667.667 0 0 0-.14-.737z"/><path d="M14.387 2.937c1.095 2-4.021 1.208-4.681 5.063-.907 5.298 3.75 5.056 3.75 5.056l6.445-.597s3.105 1.769 1.402-3.986c-1.971-6.66-8.012-7.535-6.917-5.535zM18.667 29.336h-6.666L10.667 32H20z"/><path d="M21.333 8H9.334S8 9.333 8 13.333c0 2.667.667 8.274 4 16.001h6.667c3.333-7.727 4-13.334 4-16.001 0-4-1.334-5.333-1.334-5.333zM13.334 29.336h-1.333a.668.668 0 0 0 1.333 0zM14.667 29.336h-1.333a.668.668 0 0 0 1.333 0zM16 29.336h-1.333a.667.667 0 0 0 1.333 0zM17.333 29.336H16a.666.666 0 0 0 1.332 0zM18.666 29.336h-1.333a.668.668 0 0 0 1.332 0z"/><path d="M19.241 4.52c-.359.808-1.395 2.754-3.336 3.55l.506 1.233c1.931-.792 3.101-2.426 3.709-3.548a9.736 9.736 0 0 0-.879-1.236zM16.91 5.91a17.09 17.09 0 0 0 1.64-2.129 8.148 8.148 0 0 0-1.043-.847c-.707 1.111-3.062 4.432-6.308 5.101l.269 1.306c1.876-.387 3.758-1.573 5.441-3.43zM21.139 30.861a.667.667 0 0 0-.472-.195H10a.667.667 0 1 0 0 1.333h10.667a.668.668 0 0 0 .472-1.138z"/><path d="M8.236 10.666H22.43c-.383-1.952-1.098-2.667-1.098-2.667H9.333s-.715.715-1.098 2.667zM15.805 14.862a.668.668 0 0 0-1.138.472v9.333a.668.668 0 1 0 1.333 0v-9.333a.667.667 0 0 0-.195-.472zM19.139 14.862a.668.668 0 0 0-1.131.377h-.001l-1.333 9.333a.667.667 0 0 0 1.13.566.679.679 0 0 0 .189-.378l1.334-9.333h-.001a.667.667 0 0 0-.188-.566zM13.994 24.572l-1.334-9.334-.001.001a.665.665 0 1 0-1.319.188l-.001.001 1.334 9.333h.001a.668.668 0 0 0 1.319-.188h.001zM12.664 4.729l-1.328-.125-.001.009c0-.004.023-.396-.214-.819-.321-.574-.965-.957-1.914-1.139a.666.666 0 1 1 .251-1.309c.963.185 2.243.662 2.875 1.889.387.75.336 1.421.33 1.495z"/>
<path d="M14.001 4.666a2 2 0 1 1-3.999.001 2 2 0 0 1 3.999-.001z"/>
</symbol>
<symbol id="icon-check-mark" viewBox="0 0 32 32">
<path d="M27.333 10.356l-3.561-3.561-11.427 11.427-4.116-4.116-3.561 3.561 7.742 7.751z"></path>
<path stroke-linejoin="round" stroke-linecap="round" stroke-miterlimit="10" stroke-width="0.8889" d="M4.667 17.671l7.742 7.751 14.924-15.062-3.561-3.561-11.427 11.427-4.116-4.116z"></path>
</symbol>
<symbol id="icon-cross" viewBox="0 0 32 32">
<path d="M24.060 16l7.517-7.518c0.564-0.564 0.564-1.478 0-2.041l-6.018-6.018c-0.564-0.564-1.478-0.564-2.041 0l-7.517 7.518-7.518-7.518c-0.564-0.564-1.478-0.564-2.041 0l-6.018 6.018c-0.564 0.564-0.564 1.478 0 2.041l7.518 7.518-7.518 7.518c-0.564 0.564-0.564 1.478 0 2.041l6.018 6.018c0.564 0.564 1.478 0.564 2.041 0l7.518-7.517 7.517 7.517c0.564 0.564 1.478 0.564 2.041 0l6.018-6.018c0.564-0.564 0.564-1.478 0-2.041l-7.517-7.517z"></path>
</symbol>
<symbol id="icon-phone" viewBox="0 0 32 32">
 <path d="m24.882 19.773-3.268-.373a2.561 2.561 0 0 0-2.11.733L17.137 22.5a19.357 19.357 0 0 1-8.478-8.478l2.38-2.38a2.561 2.561 0 0 0 .733-2.11l-.373-3.242a2.575 2.575 0 0 0-2.56-2.277H6.613c-1.454 0-2.663 1.209-2.573 2.663.682 10.987 9.469 19.761 20.443 20.443 1.454.09 2.663-1.119 2.663-2.573V22.32a2.549 2.549 0 0 0-2.264-2.547z" />
</symbol>
<symbol id="icon-person" viewBox="0 0 32 32">
<path d="M16 16c2.947 0 5.333-2.387 5.333-5.333S18.946 5.334 16 5.334c-2.947 0-5.333 2.387-5.333 5.333S13.054 16 16 16zm0 2.667c-3.56 0-10.667 1.787-10.667 5.333v1.333c0 .733.6 1.333 1.333 1.333h18.667c.733 0 1.333-.6 1.333-1.333V24c0-3.547-7.107-5.333-10.667-5.333z" />
</symbol>
<symbol id="icon-arrow-right" viewBox="0 0 32 32"><path d="m9.367 31.089-1.822-1.822 13.266-13.266L7.545 2.735 9.367.913l15.089 15.089z"/><path d="m9.367 32-2.734-2.734L19.899 16 6.633 2.734 9.367 0l16.001 16L9.367 32zm-.911-2.734.911.911 14.178-14.178L9.367 1.821l-.911.911 13.266 13.266L8.456 29.264z"/></symbol>
<symbol id="close_menu" viewBox="0 0 32 32">
<path d="M23.733 10.304l-1.504-1.504-5.963 5.963-5.963-5.963-1.504 1.504 5.963 5.963-5.963 5.963 1.504 1.504 5.963-5.963 5.963 5.963 1.504-1.504-5.963-5.963 5.963-5.963z"></path>
</symbol>
<symbol id="email_modal" viewBox="0 0 32 32">
<path d="M26.667 5.333h-21.333c-1.467 0-2.653 1.2-2.653 2.667l-0.013 16c0 1.467 1.2 2.667 2.667 2.667h21.333c1.467 0 2.667-1.2 2.667-2.667v-16c0-1.467-1.2-2.667-2.667-2.667zM26.133 11l-9.427 5.893c-0.427 0.267-0.987 0.267-1.413 0l-9.427-5.893c-0.333-0.213-0.533-0.573-0.533-0.96 0-0.893 0.973-1.427 1.733-0.96l8.933 5.587 8.933-5.587c0.76-0.467 1.733 0.067 1.733 0.96 0 0.387-0.2 0.747-0.533 0.96z"></path>
</symbol>
<symbol id="person_modal" viewBox="0 0 32 32">
<path d="M16 16c2.947 0 5.333-2.387 5.333-5.333s-2.387-5.333-5.333-5.333c-2.947 0-5.333 2.387-5.333 5.333s2.387 5.333 5.333 5.333zM16 18.667c-3.56 0-10.667 1.787-10.667 5.333v1.333c0 0.733 0.6 1.333 1.333 1.333h18.667c0.733 0 1.333-0.6 1.333-1.333v-1.333c0-3.547-7.107-5.333-10.667-5.333z"></path>
</symbol>
<symbol id="phone_modal" viewBox="0 0 32 32">
<path d="M24.882 19.773l-3.268-0.373c-0.785-0.090-1.557 0.18-2.11 0.733l-2.367 2.367c-3.641-1.853-6.626-4.825-8.478-8.478l2.38-2.38c0.553-0.553 0.823-1.325 0.733-2.11l-0.373-3.242c-0.154-1.299-1.248-2.277-2.56-2.277h-2.226c-1.454 0-2.663 1.209-2.573 2.663 0.682 10.987 9.469 19.761 20.443 20.443 1.454 0.090 2.663-1.119 2.663-2.573v-2.226c0.013-1.3-0.965-2.393-2.264-2.547z"></path>
</symbol>
<symbol id="vector_modal" viewBox="0 0 32 32">
<path stroke-linejoin="miter" stroke-linecap="butt" stroke-miterlimit="4" stroke-width="0.4923" d="M4.817 15.389l-0.169-0.162-2.544 2.41 8.962 8.55 18.829-17.962-2.527-2.411-16.302 15.536-6.249-5.962z"></path>
</symbol>
<symbol id="vector_btn" viewBox="0 0 22 32">
<path stroke-linejoin="round" stroke-linecap="round" stroke-miterlimit="4" stroke-width="6.4" d="M3.471 3.2l13.7 12.8-13.7 12.8"></path>
</symbol>
</defs>
</svg>
