<svg width="20" height="20" viewBox="0 0 20 20" fill="none" xmlns="http://www.w3.org/2000/svg">
<path d="M10 0.588135C4.83054 0.588135 0.588234 4.83044 0.588234 9.9999C0.588234 14.4112 3.68365 18.4184 7.79412 19.4117V16.2979C7.38683 16.387 7.012 16.3896 6.5974 16.2674C6.04119 16.1033 5.58924 15.7328 5.25376 15.1678C5.03992 14.807 4.66093 14.4158 4.26557 14.4446L4.16863 13.3459C5.02355 13.2727 5.76315 13.8668 6.20218 14.6044C6.3972 14.9324 6.62167 15.1247 6.90975 15.2097C7.18822 15.2917 7.48722 15.2524 7.83562 15.1293C7.92308 14.4318 8.24262 14.1707 8.48403 13.803V13.8025C6.03257 13.4368 5.05558 12.1363 4.66782 11.1097C4.15398 9.74671 4.42971 8.0439 5.33835 6.96782C5.35601 6.94685 5.38789 6.89199 5.37554 6.85364C4.95893 5.59517 5.46659 4.55413 5.48526 4.44369C5.96608 4.58587 6.0442 4.30065 7.57381 5.22997L7.8382 5.3888C7.94879 5.45472 7.91403 5.41709 8.02461 5.40876C8.66326 5.23528 9.33651 5.13949 9.99985 5.13087C10.6682 5.13949 11.3372 5.23528 12.0022 5.4158L12.0878 5.42442C12.0804 5.42327 12.1111 5.41896 12.1627 5.38823C14.0734 4.23086 14.0048 4.60913 14.5172 4.44254C14.5357 4.55312 15.0366 5.61111 14.6245 6.85364C14.5689 7.02483 16.281 8.59264 15.332 11.1093C14.9443 12.1363 13.9674 13.4368 11.516 13.8025V13.803C11.8302 14.282 12.2077 14.5367 12.2057 15.5248V19.4117C16.3163 18.4184 19.4116 14.4112 19.4116 9.9999C19.4118 4.83044 15.1695 0.588135 10 0.588135V0.588135Z" fill="white"/>
</svg>
